# xmcd CD database file
#
# Track frame offsets:
#	150
#	16104
#	39131
#	48151
#	71501
#	109525
#	134415
#	153823
#	175169
#	208460
#
# Disc length: 3517 seconds
#
# Revision: 0
# Processed by: cddbd v1.5.2PL0 Copyright (c) Steve Scherf et al.
# Submitted via: CDex 1.51
#
DISCID=790dbb0a
DTITLE=East West Quintet - Vast
DYEAR=1900
DGENRE=Jazz
TTITLE0=The Triumph
TTITLE1=Catalyst
TTITLE2=Vast Part 1
TTITLE3=Vast Part 2
TTITLE4=Over the Falls
TTITLE5=Comet
TTITLE6=Daffodil
TTITLE7=View from Above
TTITLE8=Gangster Rap
TTITLE9=Brooklyn
EXTD=
EXTT0=
EXTT1=
EXTT2=
EXTT3=
EXTT4=
EXTT5=
EXTT6=
EXTT7=
EXTT8=
EXTT9=
PLAYORDER=
